<svg width="140" height="37" viewBox="0 0 140 37" fill="none" xmlns="http://www.w3.org/2000/svg">
<path fill-rule="evenodd" clip-rule="evenodd" d="M38.3375 0.000150029V24.9186H44.983V10.2237L52.7779 24.9186H58.2731L65.9408 10.2237V24.9186H72.5862V0.000150029H63.2568L55.4619 14.5686L47.6661 0.000150029H38.3375ZM106.195 15.3355V20.5753C106.195 22.875 104.151 24.9194 101.85 24.9194H78.7202C76.4189 24.9194 74.3745 22.875 74.3745 20.5753V4.34508C74.3745 1.91727 76.4189 0.000150029 78.7202 0.000150029H101.85C104.151 0.000150029 106.195 1.91727 106.195 4.34508V9.58413H99.5499V6.64482H81.0191V18.2732H99.5499V15.3347H106.195V15.3355ZM139.804 15.3355V20.5753C139.804 22.875 137.887 24.9194 135.46 24.9194H112.457C110.028 24.9194 108.112 22.875 108.112 20.5753V4.34508C108.108 3.7732 108.217 3.20608 108.433 2.67678C108.65 2.14748 108.97 1.66659 109.374 1.26216C109.778 0.857732 110.259 0.537857 110.788 0.321185C111.318 0.104512 111.885 -0.00462249 112.457 0.000150029H135.46C136.032 -0.00451488 136.599 0.104692 137.128 0.321403C137.658 0.538114 138.138 0.857996 138.543 1.2624C138.947 1.66681 139.267 2.14765 139.484 2.6769C139.7 3.20616 139.809 3.77323 139.804 4.34508V9.58413H133.159V6.64482H114.757V18.2732H133.159V15.3347H139.804V15.3355ZM29.903 0.000150029H36.5485V24.9186H29.903V21.724H14.5685L10.7351 24.9186H0.510742L29.903 0.000150029ZM29.903 8.6908L19.9356 17.1253H29.903V8.6908Z" fill="#325E9E"/>
<path fill-rule="evenodd" clip-rule="evenodd" d="M1.53369 33.6101L2.17246 29.9031L2.81124 33.6101H1.53369ZM0 36.5486H1.02299L1.40562 34.6331H2.93931L3.32273 36.5486H4.34492L2.81124 27.7314H1.53369L0 36.5486ZM5.62327 29.3916H6.51739C7.79493 29.3916 8.68985 30.032 8.68985 31.436C8.68985 32.5871 7.9238 33.3531 6.64546 33.3531H6.51739V36.5478H5.62327V29.3916ZM6.64546 32.5879C7.41231 32.5879 7.79493 32.0764 7.79493 31.3095C7.79493 30.5435 7.28344 30.2873 6.51739 30.2873V32.5887H6.64546V32.5879ZM9.96819 29.3916H10.8631C12.1407 29.3916 13.0356 30.032 13.0356 31.436C13.0356 32.5871 12.2687 33.3531 10.9912 33.3531H10.8631V36.5478H9.96819V29.3916ZM10.9904 32.5879C11.7572 32.5879 12.1399 32.0764 12.1399 31.3095C12.1399 30.5435 11.6284 30.2873 10.8623 30.2873V32.5887H10.9904V32.5879ZM14.3131 29.3916H15.2072V35.6545H16.8682V36.5486H14.3131V29.3916ZM17.8912 29.3916H18.7853V36.5486H17.8912V29.3916ZM20.4471 29.3916H23.0022V30.2865H21.342V32.3317H22.8749V33.2266H21.342V35.6545H23.0022V36.5486H20.4471V29.3916ZM25.5581 35.6545V30.2865H25.6861C26.8364 30.2865 27.2198 30.9253 27.2198 32.9697C27.2198 34.8868 26.7083 35.6545 25.6861 35.6545H25.5581ZM24.6639 36.5486H25.8142C26.8364 36.5486 28.1147 35.9098 28.1147 32.9705C28.1147 30.7988 27.476 29.3924 25.6869 29.3924H24.6647V36.5486H24.6639ZM37.4434 27.8587H38.4656V36.5486H37.3153L37.4434 30.2865L37.3153 30.1593L36.2931 33.0994H36.0377L35.0148 30.1593V36.5486H33.9926V27.8587H34.8875L36.165 31.0542L37.4434 27.8587ZM40.2546 29.3916H41.1487V36.5486H40.2546V29.3916ZM45.3664 36.1659C45.111 36.5478 44.7276 36.5478 44.3442 36.5478C43.0666 36.5478 42.4271 35.271 42.4271 32.9697C42.4271 30.9253 42.9386 29.2643 44.3442 29.2643C44.5995 29.2643 44.9829 29.5205 45.3664 29.6478V30.67C45.111 30.2865 44.7276 30.1585 44.4714 30.1585C43.5765 30.1585 43.3212 31.1807 43.3212 32.9689C43.3212 34.886 43.7046 35.7809 44.4714 35.7809C44.7268 35.7809 44.9829 35.6537 45.3664 35.2694V36.1659ZM46.6439 29.3916H47.4108C48.8164 29.3916 49.1998 30.5427 49.1998 31.436C49.1998 32.0764 49.0717 32.5871 48.561 32.9697C48.9445 33.2258 49.1998 33.9919 49.4559 35.0141L49.8394 36.5478H48.8164L48.561 35.271C48.3057 33.8646 48.0503 33.3539 47.5388 33.3539V36.5486H46.6439V29.3916ZM47.5388 32.459C48.0503 32.459 48.3049 32.0772 48.3049 31.4368C48.3049 30.6708 48.0495 30.2873 47.5388 30.2873V32.459ZM51.6284 32.9697C51.6284 31.693 51.7557 30.1593 52.5225 30.1593C53.1621 30.1593 53.4174 31.1815 53.4174 32.9697C53.4174 34.7595 53.1621 35.7817 52.5225 35.7817C51.8838 35.7825 51.6284 34.7595 51.6284 32.9697ZM50.6054 32.9697C50.6054 35.271 51.5003 36.5478 52.5225 36.5478C53.5447 36.5478 54.4396 35.3983 54.4396 32.9697C54.4396 31.0542 53.8001 29.2643 52.5225 29.2643C51.1169 29.2643 50.6054 31.1815 50.6054 32.9697ZM63.6402 36.1659C63.1287 36.5478 62.7453 36.6774 62.2346 36.6774C60.829 36.6774 59.934 35.0149 59.934 32.2044C59.934 29.7758 60.5736 27.7314 62.2346 27.7314C62.618 27.7314 63.1295 27.8587 63.5121 28.1149V29.2643C63.1287 29.0098 62.7453 28.7528 62.3619 28.7528C61.3397 28.7528 61.0843 30.0312 61.0843 32.2036C61.0843 34.5034 61.4677 35.6545 62.3619 35.6545C62.7453 35.6545 63.0006 35.3983 63.6394 35.0141V36.1659H63.6402ZM64.9185 29.3916H65.8127V36.5486H64.9185V29.3916ZM67.3463 29.3916H68.1132C69.6469 29.3916 70.0303 30.5427 70.0303 31.436C70.0303 32.0764 69.7749 32.5871 69.2635 32.9697C69.7749 33.2258 70.0303 33.9919 70.2857 35.0141L70.5418 36.5478H69.6469L69.3907 35.271C69.0073 33.8646 68.8792 33.3539 68.3685 33.3539V36.5486H67.3463V29.3916ZM68.3685 32.459C68.88 32.459 69.1354 32.0772 69.1354 31.4368C69.1354 30.6708 68.8792 30.2873 68.3685 30.2873V32.459ZM74.3744 36.1659C73.9926 36.5478 73.6084 36.5478 73.225 36.5478C72.0755 36.5478 71.3078 35.271 71.3078 32.9697C71.3078 30.9253 71.9482 29.2643 73.3522 29.2643C73.6084 29.2643 73.9926 29.5205 74.2471 29.6478V30.67C74.1507 30.5184 74.0189 30.3927 73.8629 30.3036C73.707 30.2144 73.5317 30.1646 73.3522 30.1585C72.5862 30.1585 72.33 31.1807 72.33 32.9689C72.33 34.886 72.5862 35.7809 73.3522 35.7809C73.7357 35.7809 73.8637 35.6537 74.3744 35.2694V36.1659ZM76.4188 29.3916V34.7595C76.4188 35.3983 76.675 35.7817 77.0592 35.7817C77.441 35.7817 77.698 35.5256 77.698 34.7595V29.3916H78.7201V34.6323C78.7201 36.1659 77.698 36.5478 77.0592 36.5478C76.1643 36.5478 75.5255 35.909 75.5255 34.7595V29.3916H76.4188ZM80.2538 29.3916H81.1488V36.5486H80.2538V29.3916ZM83.3204 30.2865H82.171V29.3916H85.3648V30.2865H84.2153V36.5486H83.3204V30.2865ZM86.1309 35.3983C86.387 35.6545 86.6424 35.7817 86.8985 35.7817C87.2819 35.7817 87.6646 35.5256 87.6646 35.143C87.6646 33.9919 86.1309 32.4582 86.1309 30.9245C86.1309 30.0312 86.6424 29.2635 87.5373 29.2635C87.7934 29.2635 88.0488 29.3908 88.3049 29.5197V30.413C88.0488 30.1585 87.9215 30.1585 87.6646 30.1585C87.2827 30.1585 87.0258 30.413 87.0258 30.7972C87.0258 31.9467 88.5595 33.4804 88.5595 35.0141C88.5595 35.909 87.9207 36.5478 87.0258 36.5478C86.7712 36.5478 86.387 36.5478 86.1309 36.2932V35.3983ZM97.6328 36.1659C97.1213 36.5478 96.7378 36.6774 96.2263 36.6774C94.8215 36.6774 93.9266 35.0149 93.9266 32.2044C93.9266 29.7758 94.5654 27.7314 96.2263 27.7314C96.6098 27.7314 97.1212 27.8587 97.5047 28.1149V29.2643C97.1212 29.0098 96.737 28.7528 96.3552 28.7528C95.333 28.7528 95.0769 30.0312 95.0769 32.2036C95.0769 34.5034 95.4603 35.6545 96.3552 35.6545C96.737 35.6545 96.994 35.3983 97.632 35.0141V36.1659H97.6328ZM99.5499 32.9697C99.5499 31.693 99.8044 30.1593 100.572 30.1593C101.211 30.1593 101.467 31.1815 101.467 32.9697C101.467 34.7595 101.211 35.7817 100.572 35.7817C99.9333 35.7817 99.5499 34.7595 99.5499 32.9697ZM98.6549 32.9697C98.6549 35.271 99.4226 36.5478 100.572 36.5478C101.594 36.5478 102.489 35.3983 102.489 32.9697C102.489 31.0542 101.849 29.2643 100.572 29.2643C99.1664 29.2643 98.6549 31.1815 98.6549 32.9697ZM104.789 32.459V30.2873C105.3 30.2873 105.557 30.6708 105.557 31.4368C105.557 32.0764 105.3 32.459 104.789 32.459ZM103.767 36.5486H104.789V33.3539C105.3 33.3539 105.428 33.8654 105.811 35.271L106.067 36.5478H106.961L106.706 35.0141C106.45 33.9919 106.195 33.2258 105.684 32.9697C106.195 32.5879 106.45 32.0764 106.45 31.436C106.45 30.5427 106.068 29.3916 104.534 29.3916H103.767V36.5486ZM109.007 32.5879V30.2865C109.901 30.2865 110.284 30.5427 110.284 31.3087C110.284 32.0764 109.901 32.5871 109.135 32.5871H109.007V32.5879ZM108.112 36.5486H109.007V33.3539H109.262C110.411 33.3539 111.179 32.5879 111.179 31.4368C111.179 30.032 110.284 29.3924 109.135 29.3924H108.112V36.5486ZM113.097 32.9697C113.097 31.693 113.351 30.1593 114.119 30.1593C114.631 30.1593 115.012 31.1815 115.012 32.9697C115.012 34.7595 114.631 35.7817 114.119 35.7817C113.479 35.7825 113.097 34.7595 113.097 32.9697ZM112.202 32.9697C112.202 35.271 112.968 36.5478 114.119 36.5478C115.012 36.5478 116.035 35.3983 116.035 32.9697C116.035 31.0542 115.396 29.2643 114.119 29.2643C112.713 29.2643 112.202 31.1815 112.202 32.9697ZM118.209 32.459V30.2873C118.847 30.2873 119.102 30.6708 119.102 31.4368C119.102 32.0772 118.847 32.459 118.336 32.459H118.209ZM117.314 36.5486H118.209V33.3539C118.72 33.3539 118.975 33.8654 119.358 35.271L119.613 36.5478H120.508L120.253 35.0141C119.997 33.9919 119.613 33.2258 119.231 32.9697C119.742 32.5879 119.997 32.0764 119.997 31.436C119.997 30.5427 119.614 29.3916 118.08 29.3916H117.314V36.5486ZM122.297 34.1216L122.809 31.055L123.32 34.1216H122.297ZM121.019 36.5486H121.914L122.169 34.8876H123.575L123.831 36.5486H124.724L123.32 29.3924H122.425L121.019 36.5486ZM126.003 30.2865H124.981V29.3916H128.048V30.2865H126.898V36.5486H126.003V30.2865ZM129.197 29.3916H130.092V36.5486H129.197V29.3916ZM132.394 32.9697C132.394 31.693 132.521 30.1593 133.287 30.1593C133.927 30.1593 134.182 31.1815 134.182 32.9697C134.182 34.7595 133.927 35.7817 133.287 35.7817C132.648 35.7825 132.394 34.7595 132.394 32.9697ZM131.369 32.9697C131.369 35.271 132.264 36.5478 133.286 36.5478C134.308 36.5478 135.203 35.3983 135.203 32.9697C135.203 31.0542 134.565 29.2643 133.286 29.2643C131.882 29.2643 131.369 31.1815 131.369 32.9697ZM136.61 29.3916H137.249L138.91 33.7373V29.3916H139.677V36.5486H139.038L137.376 32.0764V36.5486H136.61V29.3916Z" fill="black"/>
</svg>
