<svg width="101" height="37" viewBox="0 0 101 37" fill="none" xmlns="http://www.w3.org/2000/svg">
<path fill-rule="evenodd" clip-rule="evenodd" d="M2.28081 21.4785H9.42521L7.29137 31.4215H0.146973L2.28081 21.4785Z" fill="#2A9DD6"/>
<path fill-rule="evenodd" clip-rule="evenodd" d="M9.42534 21.4785H16.4129L14.2791 31.4215H7.2915L9.42534 21.4785Z" fill="#50B7DF"/>
<path fill-rule="evenodd" clip-rule="evenodd" d="M16.4129 21.4785H23.821L21.6872 31.4215H14.2791L16.4129 21.4785Z" fill="#52A955"/>
<path fill-rule="evenodd" clip-rule="evenodd" d="M23.8211 21.4785H30.8086L28.6754 31.4215H21.6873L23.8211 21.4785Z" fill="#A6C34D"/>
<path fill-rule="evenodd" clip-rule="evenodd" d="M30.8086 21.4785H38.0851L35.9513 31.4215H28.6753L30.8086 21.4785Z" fill="#C4CE4C"/>
<path fill-rule="evenodd" clip-rule="evenodd" d="M38.0853 21.4785H45.0728L42.939 31.4215H35.9514L38.0853 21.4785Z" fill="#EDE052"/>
<path fill-rule="evenodd" clip-rule="evenodd" d="M45.0728 21.4785H52.4045L50.2707 31.4215H42.939L45.0728 21.4785Z" fill="#F3DF50"/>
<path fill-rule="evenodd" clip-rule="evenodd" d="M52.4043 21.4785H59.3919L57.2586 31.4215H50.2705L52.4043 21.4785Z" fill="#F2D14C"/>
<path fill-rule="evenodd" clip-rule="evenodd" d="M59.3918 21.4785H66.6948L64.5615 31.4215H57.2585L59.3918 21.4785Z" fill="#EBBE4A"/>
<path fill-rule="evenodd" clip-rule="evenodd" d="M66.695 21.4785H73.6826L71.5493 31.4215H64.5618L66.695 21.4785Z" fill="#E3A643"/>
<path fill-rule="evenodd" clip-rule="evenodd" d="M73.6826 21.4785H81.0373L78.904 31.4215H71.5493L73.6826 21.4785Z" fill="#DD8838"/>
<path fill-rule="evenodd" clip-rule="evenodd" d="M81.0371 21.4785H88.0235L85.8902 31.4215H78.9038L81.0371 21.4785Z" fill="#D56734"/>
<path fill-rule="evenodd" clip-rule="evenodd" d="M88.0236 21.4785H95.1008L92.9664 31.4215H85.8904L88.0236 21.4785Z" fill="#CF402F"/>
<path d="M0.374025 33.9741H0.686575L0.544089 34.8968H1.02038L1.16804 33.9741H1.48059L1.10599 36.3498H0.794014L0.976718 35.1743H0.503871L0.3114 36.3498H0L0.374025 33.9741ZM2.95831 33.9741L2.58256 36.3498H2.27116L2.64576 33.9741H2.95831ZM4.22689 35.0956H4.80315L4.75604 35.4444C4.73191 35.5938 4.70146 35.7247 4.66411 35.8385C4.62677 35.9523 4.58023 36.0488 4.5245 36.1298C4.4682 36.2114 4.39925 36.2729 4.31939 36.3159C4.23953 36.359 4.14358 36.3809 4.03499 36.3809C3.93459 36.3853 3.83498 36.3612 3.74772 36.3114C3.67349 36.2617 3.6179 36.1887 3.58972 36.1039C3.55345 35.9919 3.5356 35.8747 3.53687 35.7569C3.54319 35.5535 3.56962 35.3226 3.615 35.064C3.6535 34.8469 3.69659 34.6676 3.74313 34.5251C3.79081 34.382 3.84539 34.2683 3.90744 34.1827C3.96289 34.1034 4.03817 34.04 4.12577 33.9988C4.2085 33.9615 4.30732 33.9425 4.42166 33.9425C4.56472 33.9425 4.67618 33.981 4.75662 34.058C4.83705 34.1356 4.88646 34.2602 4.90485 34.4315L4.57678 34.5469C4.57678 34.4441 4.5584 34.3665 4.5199 34.3125C4.50254 34.287 4.47901 34.2662 4.4515 34.2521C4.42398 34.2381 4.39337 34.2312 4.36248 34.2321C4.30855 34.234 4.25679 34.2538 4.2154 34.2884C4.16351 34.3293 4.12312 34.3829 4.09819 34.4441C4.06664 34.5224 4.04203 34.6034 4.02465 34.686C3.96623 34.9454 3.9244 35.2083 3.8994 35.4731C3.88744 35.584 3.88092 35.6954 3.87987 35.8069C3.88076 35.867 3.89143 35.9266 3.91147 35.9833C3.92755 36.0218 3.94824 36.0488 3.97409 36.0614C3.99995 36.0741 4.03442 36.0815 4.07808 36.0844C4.11163 36.0849 4.14483 36.0776 4.17506 36.0631C4.20528 36.0485 4.23169 36.0271 4.25217 36.0005C4.29871 35.9448 4.33548 35.8782 4.36018 35.8C4.38546 35.7219 4.405 35.6409 4.41821 35.5558L4.44751 35.3691H4.18322L4.22689 35.0956ZM6.07806 33.9741H6.39061L6.24812 34.8968H6.72441L6.87207 33.9741H7.18462L6.81002 36.3498H6.49747L6.68017 35.1743H6.20733L6.01486 36.3498H5.70346L6.07806 33.9741ZM9.37649 36.3498L9.75109 33.9741H10.1734C10.2877 33.9741 10.3808 33.9891 10.4526 34.0178C10.5203 34.0439 10.5764 34.0934 10.6106 34.1574C10.6451 34.2218 10.6617 34.3062 10.6617 34.4114C10.6617 34.4504 10.6577 34.5084 10.6497 34.5883C10.6227 34.7762 10.5733 34.9221 10.502 35.025C10.4378 35.1229 10.344 35.1978 10.2343 35.2387C10.1121 35.2802 9.98355 35.3001 9.85451 35.2973L9.68789 36.3498H9.37649ZM9.89989 35.0261C10.0217 35.0261 10.1142 34.9985 10.1768 34.9434C10.2394 34.8871 10.282 34.7923 10.3026 34.6567C10.3107 34.59 10.3147 34.5435 10.3147 34.5159C10.3147 34.416 10.2912 34.3441 10.2452 34.3028C10.1992 34.2603 10.1251 34.239 10.0228 34.239L9.89989 35.0261ZM11.3541 35.6713C11.3799 35.395 11.4132 35.1462 11.454 34.9238C11.4942 34.7015 11.5661 34.4952 11.6672 34.3039C11.7694 34.1126 11.9068 33.9988 12.082 33.9603C12.1339 33.9509 12.1867 33.9469 12.2394 33.9483C12.4055 33.9483 12.5255 34.0069 12.6002 34.1229C12.6749 34.2401 12.7123 34.3832 12.7123 34.5533C12.7123 34.5619 12.7123 34.5739 12.7111 34.5895C12.6998 34.8316 12.6735 35.0728 12.6324 35.3117C12.6017 35.5011 12.5498 35.6865 12.4779 35.8644C12.4214 36.0092 12.3319 36.1389 12.2164 36.243C12.1077 36.3348 11.9692 36.3836 11.8269 36.3803C11.7295 36.3835 11.6339 36.3531 11.5563 36.2941C11.4836 36.2347 11.4294 36.1557 11.4 36.0666C11.3665 35.9666 11.35 35.8618 11.3512 35.7563C11.3512 35.719 11.3523 35.6903 11.3541 35.6713ZM11.6976 35.665C11.6976 35.7069 11.6959 35.742 11.6913 35.769C11.6982 35.9793 11.7706 36.0844 11.9085 36.0844C12.0033 36.0821 12.0831 36.0023 12.1486 35.8454C12.2147 35.6886 12.2647 35.5081 12.2992 35.3048C12.3336 35.1019 12.3566 34.9187 12.3687 34.7549C12.3687 34.7354 12.3693 34.7072 12.3716 34.6687C12.3739 34.6303 12.375 34.6015 12.375 34.5826C12.375 34.4613 12.3595 34.374 12.3296 34.3206C12.2992 34.2666 12.2452 34.2396 12.1676 34.2396C12.0866 34.2396 12.0176 34.2918 11.959 34.3958C11.9004 34.4998 11.8539 34.6291 11.8183 34.7831C11.7841 34.9315 11.7578 35.0817 11.7396 35.2329C11.7218 35.3789 11.7074 35.5231 11.6976 35.665ZM13.6476 33.9741H14.6939L14.6531 34.2453H14.294L13.963 36.3498H13.6413L13.9814 34.2453H13.6068L13.6476 33.9741ZM15.6476 33.9741H16.4956L16.4548 34.2453H15.9257L15.8027 34.9951H16.2819L16.2371 35.2663H15.7585L15.6355 36.0729H16.1647L16.121 36.3498H15.2724L15.6476 33.9741ZM17.15 36.3498L17.5246 33.9741H17.8239L18.1014 35.777L18.1078 35.769L18.1428 35.2933C18.1605 35.0369 18.1878 34.7812 18.2244 34.5268C18.2474 34.3706 18.2761 34.1861 18.3123 33.9741H18.6306L18.256 36.3498H17.9595L17.6941 34.5165L17.6878 34.5228C17.6774 34.7141 17.6614 34.9106 17.6401 35.1134C17.6183 35.3168 17.5924 35.5202 17.562 35.7236C17.5321 35.9276 17.4988 36.1367 17.4614 36.3498H17.15ZM20.6174 34.0115L20.5737 34.3028C20.5161 34.2578 20.4451 34.2331 20.372 34.2327C20.295 34.2342 20.2202 34.2586 20.1572 34.3028C20.0829 34.353 20.0216 34.4199 19.9779 34.4981C19.937 34.5734 19.9052 34.6532 19.8831 34.736C19.8475 34.8509 19.8159 34.9813 19.79 35.1255C19.7642 35.2709 19.7498 35.4093 19.7475 35.5426C19.7567 35.7081 19.7826 35.8391 19.8256 35.9368C19.8687 36.0339 19.9607 36.0856 20.1003 36.0913C20.1687 36.0864 20.2353 36.0671 20.2956 36.0344L20.252 36.3119C20.1691 36.3608 20.074 36.385 19.9779 36.3814C19.8797 36.382 19.7829 36.3585 19.6958 36.3131C19.6148 36.2743 19.5472 36.2123 19.5016 36.135C19.4482 36.0321 19.4177 35.8615 19.4102 35.6248C19.4137 35.4347 19.4338 35.2454 19.4706 35.0589C19.5079 34.8618 19.5602 34.6814 19.6263 34.5171C19.6929 34.3539 19.767 34.2327 19.848 34.1534C19.9078 34.0948 19.9808 34.0454 20.0658 34.004C20.1514 33.9632 20.2399 33.9431 20.3335 33.9431C20.437 33.9425 20.5312 33.9655 20.6174 34.0115ZM21.5487 36.3498L21.7159 35.3289L21.4579 33.9747H21.7986L21.9152 35.0709H21.9216C21.9445 34.9916 21.9721 34.9089 22.0043 34.8216C22.037 34.7337 22.0778 34.6291 22.1284 34.5073L22.2617 34.1879L22.3502 33.9741H22.684L22.0319 35.3231L21.871 36.3498H21.5487ZM24.9873 33.9741H25.2579L25.3274 35.6851H25.3303C25.451 35.2904 25.6446 34.721 25.9106 33.9741H26.1869L26.033 36.3498H25.7233L25.7641 35.9459C25.793 35.6562 25.8233 35.3667 25.8549 35.0772C25.8704 34.9445 25.887 34.8227 25.9031 34.7118H25.8962C25.8618 34.8239 25.8244 34.9417 25.783 35.0652C25.6799 35.3642 25.5756 35.6628 25.4699 35.9609C25.428 36.0815 25.3832 36.2108 25.3361 36.3498H25.1223C25.1129 36.0777 25.1045 35.8056 25.097 35.5334C25.0924 35.3565 25.0867 35.1818 25.0815 35.0089L25.0718 34.7113H25.0649L24.7155 36.3498H24.4133L24.9873 33.9741ZM27.4561 33.9741H27.7744L27.5101 35.634C27.4929 35.7581 27.4831 35.8431 27.482 35.8891C27.4798 35.9404 27.4941 35.9912 27.5228 36.0339C27.548 36.0677 27.5911 36.0844 27.652 36.0844C27.7098 36.0877 27.7674 36.0752 27.8186 36.0482C27.8611 36.0203 27.8926 35.9784 27.9077 35.9299C27.9272 35.8747 27.945 35.7948 27.9606 35.6909L28.2317 33.9747H28.55L28.2783 35.6725C28.2605 35.7994 28.2363 35.9069 28.2053 35.9954C28.1743 36.0838 28.1346 36.1557 28.0858 36.2108C28.0352 36.267 27.9714 36.3099 27.9002 36.3355C27.8101 36.3659 27.7156 36.3816 27.6204 36.382C27.5153 36.382 27.4297 36.3671 27.3642 36.3372C27.3002 36.3088 27.2483 36.2588 27.2177 36.1959C27.1831 36.1165 27.1657 36.0308 27.1665 35.9442C27.178 35.8132 27.1861 35.723 27.1918 35.6725L27.4561 33.9741ZM29.6135 33.9741H29.9261L29.6014 36.0723H30.1306L30.0863 36.3493H29.2389L29.6135 33.9741ZM31.0441 33.9741H32.0903L32.0496 34.2453H31.6905L31.3595 36.3498H31.0378L31.3779 34.2453H31.0033L31.0441 33.9741ZM33.3566 33.9741L32.9815 36.3498H32.6695L33.0441 33.9741H33.3566ZM34.3448 36.3498L34.2655 33.9741H34.581L34.5683 35.7575H34.5752C34.6091 35.6317 34.6476 35.4972 34.693 35.3524C34.7372 35.2077 34.7867 35.0554 34.8389 34.8951C34.8912 34.7354 34.9504 34.559 35.0153 34.3648C35.0808 34.1706 35.1239 34.0408 35.1457 33.9741H35.4422L34.5971 36.3498H34.3448ZM36.62 33.9741L36.2448 36.3498H35.9329L36.3075 33.9741H36.62ZM37.5858 33.9741H38.6315L38.5907 34.2453H38.2316L37.9007 36.3498H37.5789L37.9185 34.2453H37.5444L37.5858 33.9741ZM39.7116 33.9741H39.9633L40.0989 36.3498H39.7811L39.7616 35.8896H39.2865L39.129 36.3498H38.8194L39.7116 33.9741ZM39.3801 35.6397H39.7553L39.761 34.4309H39.7553L39.3801 35.6397ZM41.5387 33.9741H41.8093L41.8788 35.6851H41.8816C42.0629 35.1107 42.2563 34.5403 42.4619 33.9741H42.7389L42.5849 36.3498H42.2752L42.316 35.9459L42.3677 35.4306C42.3911 35.1904 42.4201 34.9507 42.4545 34.7118H42.4476C42.4131 34.8239 42.3758 34.9417 42.3338 35.0652C42.2919 35.1887 42.2396 35.3387 42.1775 35.5156C42.1155 35.6931 42.0626 35.8414 42.0201 35.9609L41.8862 36.3498H41.6748C41.67 36.2127 41.6654 36.0756 41.661 35.9385L41.6495 35.5334C41.6449 35.3565 41.6392 35.1818 41.634 35.0089L41.6237 34.7113H41.6174L41.268 36.3498H40.9653L41.5387 33.9741ZM44.2263 33.9741L43.8506 36.3498H43.5386L43.9138 33.9741H44.2263ZM45.0221 36.3498L45.3961 33.9741H45.6954L45.9735 35.777L45.9798 35.769L46.0149 35.2933C46.0326 35.0369 46.0598 34.7812 46.0965 34.5268C46.1195 34.3706 46.1482 34.1861 46.1844 33.9741H46.5027L46.1286 36.3498H45.8322L45.5667 34.5165L45.5604 34.5228C45.5495 34.7141 45.534 34.9106 45.5122 35.1134C45.4903 35.3173 45.4644 35.5207 45.4346 35.7236C45.4047 35.9276 45.3708 36.1367 45.3341 36.3498H45.0221ZM48.644 33.7345H48.8905L47.2099 36.6773H46.9583L48.644 33.7345ZM49.7126 33.9741H49.9827L50.0522 35.6851H50.055C50.1757 35.2904 50.3688 34.721 50.6359 33.9741H50.9128L50.7583 36.3498H50.4492L50.49 35.9459C50.5189 35.6562 50.5492 35.3667 50.5808 35.0772C50.5963 34.9445 50.6129 34.8227 50.629 34.7118H50.6221C50.5877 34.8239 50.5503 34.9417 50.5089 35.0652C50.4062 35.3643 50.3018 35.6629 50.1958 35.9609C50.1539 36.0815 50.1091 36.2108 50.0619 36.3498H49.8482C49.8434 36.2127 49.8388 36.0756 49.8344 35.9385L49.8229 35.5334C49.8185 35.3585 49.8131 35.1837 49.8069 35.0089L49.7971 34.7113H49.7908L49.4414 36.3498H49.1392L49.7126 33.9741ZM52.182 33.9741H52.4997L52.2349 35.634C52.2225 35.7186 52.2131 35.8037 52.2067 35.8891C52.2052 35.9404 52.2197 35.991 52.2481 36.0339C52.2728 36.0677 52.3153 36.0844 52.3773 36.0844C52.435 36.0877 52.4924 36.0752 52.5434 36.0482C52.5857 36.02 52.6173 35.9783 52.633 35.9299C52.652 35.8747 52.6698 35.7948 52.6859 35.6909L52.9565 33.9747H53.2753L53.0036 35.6725C52.9895 35.7822 52.9651 35.8903 52.9306 35.9954C52.9048 36.0742 52.864 36.1474 52.8105 36.2108C52.7623 36.266 52.7008 36.3073 52.6255 36.3355C52.5503 36.3636 52.4561 36.3786 52.3452 36.382C52.2577 36.3853 52.1706 36.37 52.0895 36.3372C52.0254 36.3088 51.9733 36.2588 51.9424 36.1959C51.9078 36.1166 51.8906 36.0308 51.8919 35.9442C51.9033 35.8132 51.9108 35.723 51.9166 35.6725L52.182 33.9741ZM54.433 33.9741H54.7462L54.4221 36.0723H54.9507L54.907 36.3493H54.0596L54.433 33.9741ZM55.7694 33.9741H56.8151L56.7749 34.2453H56.4146L56.0848 36.3498H55.7625L56.1027 34.2453H55.7281L55.7694 33.9741ZM57.9883 33.9741L57.6125 36.3498H57.3006L57.6752 33.9741H57.9883ZM59.2368 33.9741H59.5085L59.5769 35.6851H59.5803C59.7016 35.2904 59.8946 34.721 60.1606 33.9741H60.4376L60.2836 36.3498H59.9739L60.0153 35.9459C60.0388 35.7046 60.0566 35.5329 60.067 35.4306C60.0773 35.3283 60.0905 35.21 60.1049 35.0772C60.1216 34.9445 60.1376 34.8227 60.1543 34.7118H60.1474C60.0635 34.9818 59.9735 35.2498 59.8774 35.5156C59.8159 35.6931 59.763 35.8414 59.7205 35.9609L59.5872 36.3498H59.3729L59.3597 35.9385L59.3482 35.5334C59.3436 35.3565 59.3379 35.1818 59.3327 35.0089L59.3224 34.7113H59.3155L58.9667 36.3498H58.664L59.2368 33.9741ZM62.0198 33.9741L61.6441 36.3498H61.3321L61.7067 33.9741H62.0198ZM62.8156 36.3498L63.189 33.9741H63.4884L63.7664 35.777L63.7722 35.769L63.8072 35.2933C63.8176 35.1692 63.8273 35.0497 63.84 34.9348C63.8515 34.8187 63.8681 34.6831 63.8905 34.5268C63.9129 34.3706 63.9411 34.1861 63.9779 33.9741H64.2956L63.9221 36.3498H63.6257L63.3597 34.5165L63.3528 34.5228C63.3283 34.9247 63.2864 35.3254 63.2269 35.7236C63.1965 35.9276 63.1632 36.1367 63.1258 36.3498H62.8156ZM65.2706 33.9741H66.1192L66.079 34.2453H65.5492L65.4257 34.9951H65.906L65.8612 35.2663H65.382L65.2597 36.0729H65.7882L65.7446 36.3498H64.8971L65.2706 33.9741ZM66.7736 36.3498L67.1482 33.9741H67.5837C67.7388 33.9741 67.8508 34.0075 67.9227 34.0729C67.9922 34.1384 68.0284 34.2453 68.0284 34.393C68.0284 34.5039 68.0152 34.6176 67.9893 34.7337C67.9635 34.8497 67.9186 34.952 67.8526 35.0405C67.8231 35.0826 67.7852 35.1181 67.7411 35.1447C67.6971 35.1712 67.6479 35.1882 67.5969 35.1945L67.8549 36.3504H67.5239L67.278 35.1881H67.2723L67.0861 36.3504H66.7736V36.3498ZM67.3027 35.0261C67.4452 35.0261 67.5463 34.971 67.6032 34.8606C67.6618 34.7509 67.6894 34.6188 67.6894 34.4654C67.6894 34.3648 67.6681 34.3022 67.6245 34.2769C67.582 34.2516 67.5147 34.239 67.4257 34.239L67.3027 35.0261ZM69.5773 33.9741H69.829L69.9646 36.3498H69.6469L69.6267 35.8896H69.1522L68.9942 36.3498H68.6856L69.5773 33.9741ZM69.2452 35.6397H69.621L69.6267 34.4309H69.621L69.2452 35.6397ZM71.2303 33.9741H71.5434L71.2182 36.0723H71.7479L71.7043 36.3493H70.8557L71.2303 33.9741ZM73.991 35.9488C74.0715 36.0235 74.1746 36.0692 74.284 36.0787C74.3286 36.078 74.3726 36.0678 74.413 36.0487C74.4535 36.0297 74.4894 36.0023 74.5184 35.9684C74.5821 35.8948 74.6172 35.8008 74.6172 35.7035C74.6196 35.6176 74.5988 35.5326 74.5569 35.4576C74.502 35.3716 74.4405 35.2899 74.373 35.2134C74.301 35.1351 74.2385 35.0485 74.1869 34.9554C74.1428 34.8693 74.1213 34.7735 74.1242 34.6768C74.1242 34.532 74.1535 34.4027 74.2116 34.2907C74.2713 34.1787 74.3506 34.0902 74.4494 34.0287C74.5494 33.9672 74.6568 33.9356 74.7723 33.9356C74.8832 33.9356 74.9901 33.9632 75.0912 34.0178L75.0372 34.3424C75.0038 34.309 74.9641 34.2826 74.9204 34.2647C74.8767 34.2467 74.8299 34.2376 74.7827 34.2378C74.7024 34.2384 74.6256 34.2701 74.5684 34.3263C74.5009 34.3932 74.4578 34.4808 74.446 34.5751C74.446 34.6458 74.4627 34.7095 74.4977 34.7676C74.5333 34.8262 74.5931 34.9106 74.6781 35.0232C74.7631 35.1353 74.8275 35.2352 74.8711 35.3231C74.9148 35.4105 74.9361 35.5076 74.9361 35.6121C74.9361 35.7431 74.9091 35.8678 74.8539 35.9856C74.8024 36.1006 74.7205 36.1995 74.6172 36.2717C74.5143 36.3444 74.391 36.3825 74.265 36.3803C74.1294 36.3803 74.0202 36.3435 73.941 36.27L73.991 35.9488ZM76.161 33.9741H76.4799L76.215 35.634C76.2018 35.7186 76.192 35.8037 76.1857 35.8891C76.1842 35.9404 76.1987 35.991 76.2271 36.0339C76.2518 36.0677 76.2954 36.0844 76.3563 36.0844C76.414 36.0879 76.4714 36.0753 76.5224 36.0482C76.5651 36.0203 76.5967 35.9785 76.612 35.9299C76.6321 35.8747 76.6488 35.7948 76.6649 35.6909L76.9366 33.9747H77.2543L76.9826 35.6725C76.9691 35.7823 76.9446 35.8904 76.9096 35.9954C76.8841 36.0741 76.8438 36.1473 76.7907 36.2108C76.7413 36.266 76.6798 36.3073 76.6045 36.3355C76.5293 36.3636 76.435 36.3786 76.3253 36.382C76.2375 36.3853 76.15 36.37 76.0685 36.3372C76.0047 36.3088 75.953 36.2587 75.9226 36.1959C75.887 36.1168 75.8693 36.0309 75.8708 35.9442C75.8823 35.8132 75.8898 35.723 75.8967 35.6725L76.161 33.9741ZM78.0386 36.3498L78.4132 33.9741H78.8349C78.9492 33.9741 79.0423 33.9891 79.1141 34.0178C79.1818 34.0439 79.2379 34.0934 79.2721 34.1574C79.3097 34.2366 79.327 34.3238 79.3227 34.4114C79.3227 34.4504 79.3192 34.5084 79.3112 34.5883C79.2842 34.7762 79.2348 34.9221 79.163 35.025C79.0923 35.129 79.0027 35.1996 78.8958 35.2387C78.7889 35.2778 78.6625 35.2973 78.5154 35.2973L78.3494 36.3498H78.0386ZM78.5614 35.0261C78.6838 35.0261 78.7757 34.9985 78.8383 34.9434C78.901 34.8871 78.9441 34.7923 78.9642 34.6567C78.9722 34.59 78.9762 34.5435 78.9762 34.5159C78.9762 34.416 78.9538 34.3441 78.9067 34.3028C78.8607 34.2603 78.7866 34.239 78.6844 34.239L78.5614 35.0261ZM80.0449 36.3498L80.4195 33.9741H80.8412C80.9555 33.9741 81.0486 33.9891 81.1204 34.0178C81.1881 34.0439 81.2442 34.0934 81.2784 34.1574C81.3154 34.2368 81.3328 34.3239 81.329 34.4114C81.329 34.4504 81.3244 34.5084 81.3169 34.5883C81.2899 34.7762 81.2416 34.9221 81.1698 35.025C81.1056 35.1231 81.0115 35.198 80.9015 35.2387C80.7795 35.2802 80.6512 35.3 80.5223 35.2973L80.3563 36.3498H80.0449ZM80.5677 35.0261C80.6901 35.0261 80.782 34.9985 80.8446 34.9434C80.9073 34.8871 80.9492 34.7923 80.9705 34.6567C80.9785 34.59 80.9825 34.5435 80.9825 34.5159C80.9825 34.416 80.959 34.3441 80.913 34.3028C80.867 34.2603 80.7929 34.239 80.6907 34.239L80.5677 35.0261ZM82.331 33.9741H82.6429L82.3189 36.0723H82.8486L82.8038 36.3493H81.9564L82.331 33.9741ZM84.1511 33.9741H84.9997L84.9583 34.2453H84.4298L84.3062 34.9951H84.7854L84.7417 35.2663H84.2626L84.139 36.0729H84.6688L84.6251 36.3498H83.7777L84.1511 33.9741ZM85.9184 33.9741H86.189L86.2585 35.6851H86.262C86.3832 35.2904 86.5762 34.721 86.8423 33.9741H87.1192L86.9652 36.3498H86.6555L86.6969 35.9459C86.7205 35.7046 86.7383 35.5329 86.7486 35.4306C86.7589 35.3283 86.7722 35.21 86.7865 35.0772C86.8032 34.9445 86.8193 34.8227 86.8348 34.7118H86.8279C86.794 34.8239 86.7561 34.9417 86.7147 35.0652C86.6733 35.1887 86.6216 35.3387 86.559 35.5156C86.4975 35.6931 86.4447 35.8414 86.4022 35.9609L86.2689 36.3498H86.0546C86.0488 36.1689 86.0431 36.031 86.0413 35.9385L86.0299 35.5334C86.0253 35.3565 86.0195 35.1818 86.0143 35.0089L86.004 34.7113H85.9971L85.6484 36.3498H85.3456L85.9184 33.9741ZM88.3883 33.9741H89.2358L89.1956 34.2453H88.6658L88.5435 34.9951H89.0226L88.9778 35.2663H88.4986L88.3763 36.0729H88.9048L88.8623 36.3498H88.0137L88.3883 33.9741ZM89.8908 36.3498L90.2642 33.9741H90.5636L90.8405 35.777L90.8474 35.769L90.8824 35.2933C90.8928 35.1692 90.9025 35.0497 90.914 34.9348C90.9261 34.8187 90.9433 34.6831 90.9646 34.5268C90.987 34.3706 91.0163 34.1861 91.0519 33.9741H91.3708L90.9962 36.3498H90.6997L90.4349 34.5165L90.428 34.5228C90.4035 34.9247 90.3615 35.3254 90.3021 35.7236C90.2717 35.9276 90.2384 36.1367 90.201 36.3498H89.8908ZM92.3314 33.9741H93.3771L93.3357 34.2453H92.9766L92.6457 36.3498H92.3245L92.6646 34.2453H92.29L92.3314 33.9741ZM98.7324 22.3385C98.7324 22.6614 98.618 22.9366 98.3888 23.1653C98.1595 23.394 97.8838 23.5089 97.562 23.5089C97.4083 23.5113 97.2557 23.4821 97.1137 23.423C96.9718 23.3639 96.8435 23.2762 96.737 23.1653C96.6275 23.0576 96.5409 22.9288 96.4827 22.7867C96.4244 22.6446 96.3956 22.4921 96.398 22.3385C96.398 22.018 96.5112 21.7439 96.737 21.5158C96.8438 21.4054 96.9722 21.3182 97.1141 21.2594C97.256 21.2006 97.4084 21.1715 97.562 21.174C97.8843 21.174 98.1601 21.2877 98.3888 21.5158C98.6174 21.7439 98.7324 22.018 98.7324 22.3385ZM98.5255 22.3385C98.5255 22.0725 98.4324 21.8467 98.2451 21.66C98.1563 21.5693 98.0499 21.4977 97.9325 21.4496C97.815 21.4015 97.6889 21.3779 97.562 21.3802C97.4357 21.378 97.3103 21.4017 97.1935 21.4498C97.0767 21.4979 96.971 21.5695 96.8829 21.66C96.7925 21.748 96.7211 21.8537 96.673 21.9704C96.625 22.0871 96.6014 22.2124 96.6037 22.3385C96.6037 22.6069 96.6968 22.8344 96.8829 23.0228C97.0691 23.2118 97.296 23.3061 97.562 23.3061C97.6892 23.3084 97.8156 23.2844 97.9331 23.2357C98.0507 23.1869 98.1569 23.1145 98.2451 23.0228C98.4324 22.8344 98.5255 22.6069 98.5255 22.3385ZM98.1239 23.0154H97.8953C97.8648 22.9458 97.8493 22.8476 97.8493 22.7212C97.8493 22.6247 97.828 22.5586 97.7855 22.5212C97.743 22.4839 97.6775 22.4655 97.5879 22.4655H97.2937V23.0148H97.0874V21.6709H97.5948C97.9211 21.6709 98.0854 21.8019 98.0854 22.0633C98.0854 22.207 98.0372 22.3144 97.9418 22.3845C98.0159 22.4586 98.0527 22.5701 98.0527 22.7212C98.0521 22.8298 98.0757 22.9275 98.1239 23.0154ZM97.8815 22.0633C97.8815 21.9346 97.7907 21.8703 97.6063 21.8703H97.2931V22.2598H97.6063C97.7907 22.2598 97.8815 22.1943 97.8815 22.0633ZM100.974 7.00179C100.974 7.32468 100.86 7.60045 100.631 7.82855C100.524 7.93919 100.395 8.02676 100.253 8.08584C100.111 8.14493 99.9578 8.17429 99.8039 8.17212C99.6503 8.17468 99.4978 8.14549 99.3561 8.08636C99.2143 8.02724 99.0862 7.93947 98.98 7.82855C98.8701 7.72107 98.7833 7.59234 98.7248 7.45019C98.6663 7.30804 98.6374 7.15547 98.6398 7.00179C98.6398 6.68119 98.753 6.40713 98.98 6.17962C99.0866 6.06923 99.2147 5.98192 99.3564 5.92311C99.4981 5.86431 99.6504 5.83526 99.8039 5.83777C100.126 5.83777 100.402 5.95152 100.631 6.17962C100.86 6.40713 100.974 6.68177 100.974 7.00179ZM100.768 7.00179C100.768 6.73577 100.675 6.50998 100.488 6.32325C100.399 6.23254 100.292 6.16094 100.175 6.11283C100.057 6.06471 99.9314 6.0411 99.8045 6.04345C99.5384 6.04345 99.3121 6.1371 99.1253 6.32325C99.0349 6.41128 98.9635 6.51691 98.9155 6.63361C98.8675 6.75031 98.8438 6.87561 98.8461 7.00179C98.8461 7.2701 98.9392 7.49819 99.1253 7.68663C99.3115 7.87566 99.5384 7.96988 99.8045 7.96988C99.9317 7.9722 100.058 7.94823 100.176 7.8995C100.293 7.85076 100.399 7.77829 100.488 7.68663C100.578 7.59751 100.65 7.49082 100.698 7.37308C100.746 7.25533 100.77 7.129 100.768 7.00179ZM100.366 7.67859H100.137C100.107 7.60907 100.091 7.51082 100.091 7.38443C100.091 7.28848 100.07 7.22183 100.027 7.18506C99.986 7.14772 99.9193 7.12933 99.8297 7.12933H99.5356V7.67859H99.3293V6.33474H99.8366C100.163 6.33474 100.327 6.46574 100.327 6.72715C100.327 6.87079 100.279 6.97765 100.184 7.04775C100.258 7.12186 100.295 7.2339 100.295 7.38443C100.294 7.49359 100.318 7.59184 100.366 7.67859ZM100.123 6.72715C100.123 6.59846 100.033 6.53411 99.8493 6.53411H99.535V6.92307H99.8493C100.033 6.92365 100.123 6.85815 100.123 6.72715ZM54.7318 4.35603L55.9596 1.54596H56.8852L56.9122 4.35603H56.1187L56.148 3.94179H55.6844L55.5362 4.35603H54.7318ZM55.8838 3.37472H56.198L56.271 2.33307L55.8838 3.37472ZM57.8131 4.35603L58.4313 1.54596H59.0259C59.4005 1.54596 59.6711 1.63329 59.8383 1.80737C60.0055 1.98203 60.0773 2.25206 60.0561 2.61805C60.0382 2.89957 59.9773 3.17248 59.8734 3.43447C59.7699 3.6976 59.6447 3.89927 59.4976 4.04061C59.3832 4.1513 59.2451 4.23443 59.0937 4.28364C58.9443 4.3319 58.7145 4.35603 58.4048 4.35603H57.8131ZM58.7559 3.66256L58.7725 3.66543L58.7984 3.66658C58.8456 3.66501 58.892 3.65314 58.9341 3.63181C58.9763 3.61047 59.0133 3.58018 59.0426 3.54306C59.092 3.48215 59.1448 3.35633 59.1983 3.16731C59.2523 2.97771 59.2845 2.78926 59.2959 2.60253C59.304 2.48073 59.2891 2.39168 59.2546 2.33423C59.219 2.27735 59.1569 2.24575 59.0696 2.23885L58.7559 3.66256ZM61.1954 1.54596H61.9773L61.8687 3.38218L62.5645 1.54596H63.3453L62.0842 4.35603H61.2224L61.1954 1.54596ZM63.1655 4.35603L64.3933 1.54596H65.3188L65.3458 4.35603H64.5524L64.5817 3.94179H64.1181L63.9698 4.35603H63.1655ZM64.318 3.37472H64.6323L64.7052 2.33307L64.318 3.37472ZM66.2841 4.35603L66.9034 1.54596H67.6296L67.7899 3.0547L68.1444 1.54596H68.8029L68.1904 4.35603H67.4688L67.2901 2.90072L66.9523 4.35603H66.2841ZM71.2642 2.26815C71.1878 2.22362 71.1009 2.20022 71.0125 2.20036C70.8287 2.20036 70.6759 2.28769 70.5535 2.4635C70.4311 2.63931 70.3604 2.87142 70.3438 3.16099C70.3323 3.34714 70.357 3.48445 70.419 3.57523C70.4805 3.66486 70.5816 3.70967 70.7195 3.70967C70.7534 3.70967 70.789 3.70623 70.8293 3.69876C70.8683 3.69129 70.9103 3.68095 70.9551 3.66716L70.7948 4.34396C70.7372 4.36664 70.6773 4.38282 70.6161 4.39222C70.5444 4.40271 70.472 4.4077 70.3995 4.40716C70.0829 4.40716 69.8462 4.31466 69.6894 4.13024C69.5337 3.94581 69.467 3.6775 69.4883 3.32645C69.5222 2.77605 69.6756 2.33307 69.9508 1.99754C70.226 1.66201 70.5713 1.49425 70.9919 1.49425C71.0683 1.49425 71.1435 1.50057 71.2153 1.51493C71.2883 1.52757 71.359 1.54768 71.4296 1.57353L71.2642 2.26815ZM71.8456 4.35603L72.4638 1.54596H73.8554L73.706 2.22736H73.0987L73.0177 2.58587H73.5664L73.4239 3.2443H72.8752L72.7879 3.63039H73.3963L73.2372 4.3566H71.8456V4.35603ZM74.3219 4.35603L74.9401 1.54596H75.5347C75.9093 1.54596 76.1799 1.63329 76.3471 1.80737C76.5143 1.98203 76.5873 2.25206 76.5649 2.61805C76.5471 2.89957 76.4862 3.17248 76.3822 3.43447C76.2788 3.6976 76.1535 3.89927 76.0064 4.04061C75.8921 4.1513 75.7539 4.23443 75.6025 4.28364C75.4531 4.3319 75.2233 4.35603 74.9137 4.35603H74.3219ZM75.2647 3.66256L75.2814 3.66543L75.3072 3.66658C75.3546 3.66574 75.4012 3.65418 75.4435 3.63279C75.4857 3.6114 75.5227 3.58072 75.5514 3.54306C75.6008 3.48215 75.6537 3.35633 75.7071 3.16731C75.7611 2.97771 75.7933 2.78926 75.8048 2.60253C75.8128 2.48073 75.7979 2.39168 75.7634 2.33423C75.7278 2.27735 75.6657 2.24575 75.5796 2.23885L75.2647 3.66256ZM78.6298 4.35603L79.248 1.54596H80.6395L80.4901 2.22736H79.88L79.7915 2.63356H80.3189L80.1764 3.29543H79.6456L79.4112 4.35603H78.6298ZM82.0638 3.41838C82.0569 3.52352 82.0661 3.60051 82.092 3.6482C82.1167 3.69588 82.1603 3.72001 82.2224 3.72001C82.2502 3.71977 82.2778 3.71383 82.3033 3.70257C82.3288 3.69131 82.3517 3.67496 82.3706 3.65452C82.4131 3.61143 82.4539 3.54133 82.4918 3.44481C82.5412 3.32071 82.5849 3.17018 82.6223 2.99322C82.659 2.81741 82.6826 2.64965 82.6929 2.4905C82.6987 2.38536 82.6895 2.30779 82.6659 2.25838C82.6558 2.2353 82.6389 2.21584 82.6174 2.2026C82.596 2.18936 82.571 2.18297 82.5458 2.18427C82.5167 2.184 82.4879 2.18955 82.4609 2.2006C82.434 2.21165 82.4095 2.22798 82.389 2.24862C82.335 2.30828 82.2945 2.3788 82.2701 2.45545C82.2132 2.60558 82.1687 2.76006 82.1368 2.91738C82.0966 3.09664 82.073 3.26325 82.0638 3.41838ZM82.0971 4.41176C81.8311 4.41176 81.6237 4.31581 81.4732 4.12334C81.3238 3.93087 81.2589 3.67463 81.2778 3.35518C81.2934 3.09434 81.3428 2.84154 81.4261 2.59506C81.5082 2.34859 81.6111 2.14175 81.738 1.97514C81.8604 1.81312 81.9983 1.69304 82.1511 1.61375C82.3105 1.53279 82.4872 1.49178 82.6659 1.49425C82.9365 1.49425 83.1462 1.58905 83.2933 1.77807C83.4416 1.96709 83.5042 2.22506 83.4841 2.55083C83.4695 2.80882 83.4204 3.06369 83.3381 3.30864C83.2671 3.53123 83.1615 3.74122 83.025 3.93087C82.9176 4.0811 82.7771 4.20457 82.6142 4.29168C82.4542 4.3732 82.2767 4.41442 82.0971 4.41176ZM85.2134 2.79903H85.256C85.3749 2.79903 85.4691 2.76168 85.5375 2.68699C85.6059 2.61173 85.6455 2.50371 85.6541 2.36238C85.6587 2.28137 85.642 2.22276 85.6024 2.1837C85.5645 2.14463 85.5013 2.12566 85.4163 2.12566C85.4076 2.12588 85.399 2.12646 85.3904 2.12739C85.3783 2.12854 85.368 2.12969 85.3599 2.12969L85.2134 2.79903ZM84.0845 4.35603L84.7027 1.54596H85.3645C85.7811 1.54596 86.0638 1.60054 86.2143 1.7097C86.3648 1.81886 86.432 2.00501 86.4165 2.26815C86.4022 2.49739 86.3413 2.68584 86.2327 2.8335C86.1238 2.98196 85.9648 3.08587 85.7851 3.12594L86.0569 4.35603H85.2255L85.1169 3.22074L84.871 4.35603H84.0845ZM88.2188 2.2716L87.6949 4.35603H87.0192L87.8374 1.54596H88.7566L88.6733 3.02827L89.241 1.54596H90.1556L89.7437 4.35603H89.0646L89.4484 2.27505L88.6549 4.35603H88.1241L88.2188 2.2716ZM90.9232 3.35116L91.3162 1.54596H92.1062L91.6896 3.42585L91.6816 3.46779C91.6793 3.48264 91.6778 3.4976 91.677 3.5126C91.6736 3.56029 91.6851 3.59764 91.7109 3.62521C91.7253 3.63935 91.7425 3.65034 91.7614 3.65746C91.7803 3.66458 91.8005 3.66769 91.8206 3.66658C91.8485 3.66771 91.8763 3.66297 91.9022 3.65268C91.9282 3.64239 91.9517 3.62677 91.9712 3.60683C92.0142 3.5551 92.0425 3.49281 92.0533 3.42642L92.4676 1.54653H93.253L92.8548 3.35001L92.8479 3.37874C92.7715 3.72001 92.6738 3.95787 92.5515 4.09289C92.4549 4.20033 92.3372 4.28134 92.1958 4.33534C92.0545 4.38935 91.8896 4.41636 91.7011 4.41636C91.4058 4.41636 91.1904 4.3543 91.0559 4.23078C90.9215 4.10725 90.8617 3.91823 90.8772 3.66371C90.8838 3.55842 90.8992 3.45388 90.9232 3.35116ZM93.5874 4.35603L94.2056 1.54596H94.9921L94.5285 3.65911H95.103L94.9513 4.35603H93.5874ZM95.8694 4.35603L97.0972 1.54596H98.0228L98.0498 4.35603H97.2564L97.2857 3.94179H96.822L96.6738 4.35603H95.8694ZM97.0219 3.37472H97.3362L97.4092 2.33307L97.0219 3.37472Z" fill="black"/>
<path fill-rule="evenodd" clip-rule="evenodd" d="M10.725 0H19.1023C19.1747 0 19.2465 0.00229907 19.3178 0.00632085L18.4129 4.22344H12.1837C11.8172 4.22344 11.4535 4.52335 11.3765 4.89048L9.23174 15.0598C9.15418 15.427 9.39146 15.7269 9.75802 15.7269H15.9447L15.0248 20.0129C14.9772 20.0148 14.9295 20.0157 14.8818 20.0158H6.5044C4.38492 20.0158 3.0158 18.2819 3.46279 16.1618L6.05856 3.85459C6.50498 1.73453 8.60492 0 10.725 0ZM75.2366 20.0158H69.914L70.3616 17.9302C69.243 19.3827 68.4628 20.0158 65.9492 20.0158C63.3976 20.0158 62.4537 19.3132 63.0138 16.7019L65.3005 6.04818H69.9721L67.8917 15.7407C67.6866 16.6978 68.1611 16.7019 68.6684 16.7019H69.7647C70.5805 16.7019 70.7173 16.2692 70.8304 15.7424L72.9109 6.04818H77.4175L75.1309 16.7019H75.9479L75.2366 20.0158ZM79.1641 6.04818H83.7794L83.3778 7.92061C84.1914 7.04386 85.2094 6.04818 86.9572 6.04818C88.7785 6.04818 89.831 6.43369 90.0758 7.58162C90.7469 6.83875 91.7816 6.04818 93.8138 6.04818C96.7324 6.04818 97.4437 6.69568 96.8829 9.30754L95.2961 16.7019H96.1251L95.415 20.0158H90.0499C90.748 16.7656 91.4334 13.5724 92.1303 10.3222C92.3355 9.36442 92.0551 9.30754 91.5489 9.30754H90.7704C90.4492 9.30754 89.985 9.30754 89.8201 10.0763C89.1096 13.3896 88.3986 16.7028 87.6869 20.0158H83.0279L85.121 10.2659C85.3261 9.30812 84.9314 9.30754 84.424 9.30754H83.834C83.6364 9.30754 83.0808 9.30754 82.971 9.81773L80.7826 20.0158H76.1673L79.1641 6.04818ZM54.3636 6.04818H58.8777C58.7249 6.75486 58.5738 7.46212 58.4221 8.16881C59.4218 7.01053 60.113 6.04818 61.755 6.04818C63.4281 6.04818 64.3025 7.10304 63.967 8.67038C63.8009 9.44141 63.4821 10.849 63.316 11.6201H59.6143L59.8665 10.448C59.9981 9.83497 60.1113 9.30754 59.1564 9.30754C58.1779 9.30754 58.0676 9.82061 57.9355 10.44L55.8798 20.0158H51.3656L54.3636 6.04818ZM46.4177 1.53804H50.8727L49.9046 6.04818H53.2202L52.521 9.30754H49.2053L47.9643 15.0909C47.7851 15.9245 47.5645 16.7019 48.6957 16.7019H50.9341C50.6963 17.8067 50.4596 18.9115 50.2229 20.0158H45.6288C43.0158 20.0158 42.7176 18.78 43.0957 17.0161L44.7498 9.30754H43.5892L44.289 6.04818H45.4496L46.4177 1.53804ZM31.5543 6.04818H36.0294L35.5681 8.12974C36.6568 6.91688 37.9082 6.04818 39.9736 6.04818C42.435 6.04818 43.5392 6.69568 42.9785 9.30754L41.3916 16.7019H42.1713L41.46 20.0158H36.2173L38.3098 10.2647C38.5149 9.30754 37.9995 9.30754 37.4928 9.30754H36.2472C35.4319 9.30754 35.2371 9.73672 35.1239 10.2636L33.0309 20.0158H28.5552L31.5543 6.04818ZM21.3919 6.04818H27.3539C29.3401 6.04818 29.9927 7.25701 29.667 8.77322L28.5547 13.9561H21.6878L21.3304 15.6212C21.2408 16.0411 21.0989 16.7019 22.1888 16.7019H27.9658L27.2545 20.0158H18.4692C16.9541 20.0158 16.1297 18.9012 16.4198 17.5493L18.3589 8.51238C18.649 7.15991 19.8762 6.04818 21.3919 6.04818ZM23.2942 9.30754H25.0689C25.4355 9.30754 25.6825 9.58792 25.6193 9.93034L25.2746 11.7844H22.1865L22.5501 9.93666C22.6179 9.59424 22.9282 9.30754 23.2942 9.30754Z" fill="black"/>
</svg>
