<svg width="112" height="37" viewBox="0 0 112 37" fill="none" xmlns="http://www.w3.org/2000/svg">
<path fill-rule="evenodd" clip-rule="evenodd" d="M38.9684 11.6466C37.1431 13.2477 36.0757 15.831 36.0757 18.162C36.0757 22.6833 39.7544 26.9238 44.7814 26.9238H50.8478V22.8515H44.9782C42.2262 22.7954 40.1754 20.5204 40.1754 18.19C40.1754 15.831 42.1135 13.4439 45.0062 13.4439H50.8478V9.37218H45.3992C43.0688 9.37158 40.8498 9.98937 38.9684 11.6466ZM59.9465 9.37158C55.1163 9.37158 51.1561 13.4153 51.1561 18.134C51.1561 22.9362 55.1163 26.9238 59.9465 26.9238C64.8042 26.9238 68.7644 22.9356 68.7644 18.134C68.7644 13.4158 64.8048 9.37158 59.9465 9.37158ZM59.9465 22.8234C57.3913 22.8234 55.2564 20.7172 55.2564 18.134C55.2564 15.6061 57.3913 13.4433 59.9465 13.4433C62.5578 13.4433 64.6926 15.6055 64.6926 18.134C64.6926 20.7172 62.5578 22.8234 59.9465 22.8234ZM83.1721 15.0724C83.1721 12.0115 80.6169 9.37158 77.4432 9.37158H69.9164V26.9238H74.0162V20.914L78.2286 26.9238L83.1435 26.8957L79.0718 20.8574C81.0939 20.3803 83.1721 18.1053 83.1721 15.0724ZM77.3592 17.2914H74.0168V13.4433H77.3592C78.3133 13.4433 79.1004 14.3139 79.1004 15.3253C79.1004 16.3366 78.2292 17.2914 77.3592 17.2914ZM102.662 22.7394V9.39961H98.562V26.9238H111.565V22.7394H102.662ZM84.3797 26.9238H96.9889V22.8515H88.5354V20.1561H96.9889V16.4768H88.5354V13.4433H96.9889V9.39961H84.3797V26.9238Z" fill="#236BB3"/>
<path fill-rule="evenodd" clip-rule="evenodd" d="M14.1967 0V8.28472H22.4814V0H14.1967ZM0 14.1967V22.4051H8.28532V14.1967H0ZM22.5732 28.3922L28.3468 34.2427L34.1968 28.3922L28.3468 22.5422L22.5732 28.3922ZM22.5428 8.28532L28.3778 14.1203L34.1664 8.28532L28.3164 2.43538L22.5428 8.28532ZM2.45029 28.3313L8.30023 34.1819L14.1508 28.3313L8.30023 22.4808L2.45029 28.3313ZM2.43539 8.28532L8.28532 14.1203L14.1353 8.28532L8.28532 2.43538L2.43539 8.28532ZM14.2122 28.3922V36.6775H22.4969V28.3922H14.2122Z" fill="#CC2229"/>
</svg>
