<svg width="166" height="50" viewBox="0 0 166 50" fill="none" xmlns="http://www.w3.org/2000/svg">
<path d="M31.4501 11.538C25.078 11.538 12.314 6.37242 12.314 0H12.2196C12.2196 5.10019 14.2456 9.99149 17.8519 13.5979C21.4582 17.2044 26.3494 19.2305 31.4496 19.2307C34.5097 19.2307 37.4446 20.4464 39.6085 22.6102C41.7725 24.774 42.9881 27.7089 42.9881 30.769C42.9888 33.8291 41.7737 36.7644 39.6102 38.9286C37.4467 41.093 34.5121 42.3091 31.452 42.3098C28.3917 42.3103 25.4566 41.0952 23.2923 38.9317C21.128 36.7682 19.9117 33.8336 19.9111 30.7735C19.9111 28.2481 19.4136 25.7473 18.4471 23.4142C17.4806 21.0811 16.064 18.9611 14.2782 17.1754C12.4923 15.3897 10.3723 13.9732 8.03908 13.0069C5.70586 12.0405 3.20512 11.5432 0.679688 11.5433V11.6369C7.05091 11.6369 12.2165 24.3954 12.2189 30.7687H12.2177C12.2177 34.5723 13.3455 38.2904 15.4585 41.4529C17.5715 44.6154 20.5749 47.0803 24.0888 48.5358C27.6028 49.9916 31.4693 50.3726 35.1999 49.6305C38.9301 48.8887 42.3568 47.0572 45.0465 44.368C47.7359 41.6786 49.5676 38.2521 50.31 34.5216C51.0523 30.7913 50.6715 26.9247 49.2162 23.4107C47.7609 19.8966 45.2962 16.893 42.134 14.7797C38.9715 12.6664 35.2535 11.5383 31.4501 11.538Z" fill="#028DAE"/>
<path d="M67.6797 25.968C67.5197 25.792 67.2877 25.608 66.9837 25.416C66.6797 25.208 66.3197 25.016 65.9037 24.84C65.4877 24.664 65.0397 24.52 64.5597 24.408C64.0797 24.296 63.5837 24.24 63.0717 24.24C61.9517 24.24 61.1197 24.448 60.5757 24.864C60.0317 25.28 59.7597 25.856 59.7597 26.592C59.7597 27.136 59.9117 27.568 60.2157 27.888C60.5197 28.192 60.9837 28.448 61.6077 28.656C62.2317 28.864 63.0157 29.088 63.9597 29.328C65.1117 29.6 66.1117 29.928 66.9597 30.312C67.8077 30.68 68.4557 31.176 68.9037 31.8C69.3517 32.424 69.5757 33.248 69.5757 34.272C69.5757 35.136 69.4157 35.88 69.0957 36.504C68.7757 37.128 68.3277 37.64 67.7517 38.04C67.1757 38.424 66.5117 38.712 65.7597 38.904C65.0077 39.08 64.1997 39.168 63.3357 39.168C62.4877 39.168 61.6397 39.08 60.7917 38.904C59.9597 38.728 59.1597 38.472 58.3917 38.136C57.6397 37.784 56.9437 37.36 56.3037 36.864L57.5277 34.56C57.7357 34.768 58.0317 35 58.4157 35.256C58.8157 35.496 59.2717 35.728 59.7837 35.952C60.3117 36.176 60.8797 36.368 61.4877 36.528C62.1117 36.672 62.7437 36.744 63.3837 36.744C64.4557 36.744 65.2717 36.56 65.8317 36.192C66.4077 35.808 66.6957 35.264 66.6957 34.56C66.6957 33.984 66.5117 33.528 66.1437 33.192C65.7757 32.84 65.2397 32.544 64.5357 32.304C63.8317 32.064 62.9917 31.824 62.0157 31.584C60.8957 31.28 59.9597 30.952 59.2077 30.6C58.4557 30.232 57.8877 29.768 57.5037 29.208C57.1357 28.632 56.9517 27.904 56.9517 27.024C56.9517 25.904 57.2237 24.96 57.7677 24.192C58.3117 23.408 59.0477 22.824 59.9757 22.44C60.9197 22.04 61.9757 21.84 63.1437 21.84C63.9117 21.84 64.6397 21.928 65.3277 22.104C66.0157 22.264 66.6557 22.488 67.2477 22.776C67.8557 23.064 68.4077 23.392 68.9037 23.76L67.6797 25.968ZM71.9596 21.48H74.5996V35.376C74.5996 36.016 74.6956 36.424 74.8876 36.6C75.0796 36.776 75.3196 36.864 75.6076 36.864C75.9276 36.864 76.2236 36.832 76.4956 36.768C76.7836 36.704 77.0316 36.624 77.2396 36.528L77.6236 38.616C77.2396 38.776 76.7836 38.912 76.2556 39.024C75.7276 39.136 75.2556 39.192 74.8396 39.192C73.9436 39.192 73.2396 38.944 72.7276 38.448C72.2156 37.936 71.9596 37.232 71.9596 36.336V21.48ZM79.1543 39V26.448H81.7943V39H79.1543ZM79.1543 24.384V21.48H81.7943V24.384H79.1543ZM93.7028 39L89.6708 33.216L87.6068 35.184V39H84.9668V21.48H87.6068V32.52L93.4148 26.472H96.2468L91.3748 31.728L96.5108 39H93.7028ZM103.099 39.24C102.107 39.24 101.219 39.072 100.435 38.736C99.651 38.384 98.971 37.904 98.395 37.296C97.835 36.688 97.403 36 97.099 35.232C96.795 34.448 96.643 33.616 96.643 32.736C96.643 31.856 96.795 31.024 97.099 30.24C97.403 29.456 97.835 28.768 98.395 28.176C98.971 27.568 99.651 27.096 100.435 26.76C101.235 26.408 102.123 26.232 103.099 26.232C104.075 26.232 104.955 26.408 105.739 26.76C106.539 27.096 107.219 27.568 107.779 28.176C108.355 28.768 108.795 29.456 109.099 30.24C109.403 31.024 109.555 31.856 109.555 32.736C109.555 33.616 109.403 34.448 109.099 35.232C108.795 36 108.355 36.688 107.779 37.296C107.219 37.904 106.539 38.384 105.739 38.736C104.955 39.072 104.075 39.24 103.099 39.24ZM99.355 32.76C99.355 33.56 99.523 34.28 99.859 34.92C100.195 35.56 100.643 36.064 101.203 36.432C101.763 36.8 102.395 36.984 103.099 36.984C103.787 36.984 104.411 36.8 104.971 36.432C105.547 36.048 106.003 35.536 106.339 34.896C106.675 34.24 106.843 33.52 106.843 32.736C106.843 31.936 106.675 31.216 106.339 30.576C106.003 29.936 105.547 29.432 104.971 29.064C104.411 28.68 103.787 28.488 103.099 28.488C102.395 28.488 101.763 28.68 101.203 29.064C100.643 29.448 100.195 29.96 99.859 30.6C99.523 31.224 99.355 31.944 99.355 32.76ZM123.153 39H120.513V31.968C120.513 30.8 120.321 29.944 119.937 29.4C119.569 28.856 119.017 28.584 118.281 28.584C117.769 28.584 117.257 28.712 116.745 28.968C116.249 29.224 115.801 29.576 115.401 30.024C115.001 30.456 114.713 30.96 114.537 31.536V39H111.896V26.448H114.297V28.968C114.617 28.408 115.033 27.928 115.545 27.528C116.073 27.112 116.665 26.792 117.321 26.568C117.977 26.344 118.673 26.232 119.409 26.232C120.161 26.232 120.777 26.368 121.257 26.64C121.753 26.912 122.137 27.288 122.409 27.768C122.697 28.232 122.889 28.776 122.984 29.4C123.097 30.008 123.153 30.656 123.153 31.344V39ZM126.097 34.128V26.448H128.737V33.6C128.737 34.72 128.937 35.568 129.337 36.144C129.753 36.704 130.353 36.984 131.137 36.984C131.633 36.984 132.113 36.88 132.577 36.672C133.057 36.464 133.489 36.16 133.873 35.76C134.273 35.344 134.593 34.848 134.833 34.272V26.448H137.473V36.024C137.473 36.328 137.529 36.544 137.641 36.672C137.753 36.8 137.937 36.872 138.193 36.888V39C137.921 39.048 137.697 39.08 137.521 39.096C137.345 39.112 137.177 39.12 137.017 39.12C136.537 39.12 136.137 38.992 135.817 38.736C135.497 38.464 135.313 38.12 135.265 37.704L135.217 36.456C134.657 37.368 133.929 38.064 133.033 38.544C132.137 39.008 131.153 39.24 130.081 39.24C128.769 39.24 127.777 38.808 127.105 37.944C126.433 37.08 126.097 35.808 126.097 34.128ZM146.53 39.24C145.554 39.24 144.666 39.072 143.866 38.736C143.082 38.384 142.402 37.912 141.826 37.32C141.25 36.712 140.802 36.024 140.482 35.256C140.178 34.472 140.026 33.64 140.026 32.76C140.026 31.576 140.298 30.496 140.842 29.52C141.386 28.528 142.146 27.736 143.122 27.144C144.098 26.536 145.242 26.232 146.554 26.232C147.866 26.232 148.994 26.536 149.938 27.144C150.898 27.736 151.642 28.52 152.17 29.496C152.698 30.472 152.962 31.52 152.962 32.64C152.962 32.832 152.954 33.016 152.938 33.192C152.922 33.352 152.906 33.488 152.89 33.6H142.834C142.882 34.336 143.082 34.984 143.434 35.544C143.802 36.088 144.266 36.52 144.826 36.84C145.386 37.144 145.986 37.296 146.626 37.296C147.33 37.296 147.994 37.12 148.618 36.768C149.258 36.416 149.69 35.952 149.914 35.376L152.17 36.024C151.898 36.632 151.482 37.184 150.922 37.68C150.378 38.16 149.73 38.544 148.978 38.832C148.226 39.104 147.41 39.24 146.53 39.24ZM142.762 31.848H150.346C150.298 31.128 150.09 30.496 149.722 29.952C149.37 29.392 148.914 28.96 148.354 28.656C147.81 28.336 147.202 28.176 146.53 28.176C145.874 28.176 145.266 28.336 144.706 28.656C144.162 28.96 143.714 29.392 143.362 29.952C143.01 30.496 142.81 31.128 142.762 31.848ZM159.579 39.24C158.523 39.24 157.523 39.072 156.579 38.736C155.635 38.384 154.827 37.864 154.155 37.176L155.139 35.4C155.859 36.04 156.579 36.504 157.299 36.792C158.035 37.08 158.763 37.224 159.483 37.224C160.219 37.224 160.819 37.088 161.283 36.816C161.747 36.528 161.979 36.112 161.979 35.568C161.979 35.168 161.859 34.872 161.619 34.68C161.379 34.488 161.027 34.32 160.563 34.176C160.115 34.032 159.571 33.872 158.931 33.696C158.035 33.424 157.283 33.144 156.675 32.856C156.067 32.552 155.611 32.184 155.307 31.752C155.003 31.32 154.851 30.768 154.851 30.096C154.851 29.28 155.059 28.584 155.475 28.008C155.891 27.432 156.467 26.992 157.203 26.688C157.955 26.384 158.819 26.232 159.795 26.232C160.707 26.232 161.547 26.376 162.315 26.664C163.099 26.936 163.787 27.368 164.379 27.96L163.251 29.712C162.691 29.2 162.115 28.824 161.523 28.584C160.947 28.344 160.323 28.224 159.651 28.224C159.267 28.224 158.899 28.272 158.547 28.368C158.195 28.448 157.899 28.608 157.659 28.848C157.435 29.072 157.323 29.392 157.323 29.808C157.323 30.144 157.419 30.416 157.611 30.624C157.803 30.832 158.091 31.008 158.475 31.152C158.859 31.296 159.331 31.456 159.891 31.632C160.867 31.92 161.699 32.208 162.387 32.496C163.075 32.768 163.603 33.128 163.971 33.576C164.355 34.008 164.547 34.608 164.547 35.376C164.547 36.592 164.091 37.544 163.179 38.232C162.283 38.904 161.083 39.24 159.579 39.24Z" fill="#16282D"/>
</svg>
