<svg width="76" height="37" viewBox="0 0 76 37" fill="none" xmlns="http://www.w3.org/2000/svg">
<path fill-rule="evenodd" clip-rule="evenodd" d="M0.568049 31.9389V36.112H4.74105V36.68H0V31.9389H0.568049ZM4.74105 0.567618H0.568049V4.76945H0V0H4.74105V0.567618Z" fill="black"/>
<path fill-rule="evenodd" clip-rule="evenodd" d="M3.26465 18.3399C3.26465 16.7786 3.52027 15.2737 3.94631 13.8828L4.2299 13.0312C4.42806 12.517 4.65551 12.0145 4.91113 11.5263L5.36514 10.6746C5.67971 10.1559 6.02085 9.65374 6.38719 9.17018L7.09682 8.31853C9.85057 5.22396 13.854 3.29346 18.3394 3.29346C26.6579 3.29346 33.3863 10.0222 33.3863 18.3403C33.3863 26.6587 26.6579 33.3871 18.3394 33.3871C10.021 33.3871 3.26465 26.6583 3.26465 18.3399Z" fill="#CC2131"/>
<path fill-rule="evenodd" clip-rule="evenodd" d="M13.3431 18.993H8.6305C8.34647 18.993 8.09128 19.0782 7.86406 19.2486C7.76423 19.3315 7.68432 19.4357 7.63024 19.5536C7.57616 19.6716 7.54929 19.8001 7.55164 19.9298C7.55164 20.2423 7.63684 20.4695 7.86406 20.5831C8.06288 20.6967 8.46051 20.7535 9.02813 20.7535H11.0154C11.6115 20.7535 12.1511 20.8955 12.6051 21.1507C13.088 21.4063 13.4568 21.7472 13.7124 22.2012C13.9964 22.6268 14.1384 23.138 14.1384 23.6777C14.1384 24.2169 14.0248 24.7565 13.7408 25.2105C13.468 25.6819 13.0765 26.0735 12.6051 26.3462C12.1507 26.6018 11.6683 26.7434 11.1286 26.7434H6.7284V25.9202H11.2422C11.6115 25.9202 11.9803 25.8354 12.2927 25.6366C12.6335 25.4378 12.8891 25.1821 13.0596 24.8413C13.2579 24.5005 13.3431 24.1601 13.3431 23.7624C13.3431 23.3648 13.2579 22.996 13.0596 22.6556C12.8323 22.3148 12.5767 22.0592 12.2363 21.8603C11.888 21.6703 11.4969 21.5725 11.1002 21.5763H8.37488C8.09407 21.5751 7.81904 21.4965 7.58004 21.3491C7.32442 21.1787 7.154 20.9515 7.01199 20.6958C6.86998 20.4407 6.8136 20.1282 6.8136 19.8442C6.8136 19.5318 6.89838 19.2766 7.06879 19.021C7.23921 18.7653 7.46643 18.5665 7.75002 18.4249C8.03405 18.2829 8.34604 18.1977 8.65847 18.1977H13.3431V18.993ZM3.34033 16.8632C3.3696 16.5766 3.4066 16.2926 3.45136 16.0116H18.1126C18.6802 15.5292 19.1347 15.1884 19.5891 14.9327H3.66352C3.73065 14.6448 3.80553 14.3604 3.88686 14.0811H19.7879C19.5069 13.7467 19.2596 13.3854 19.0499 13.0022H4.24146C4.35335 12.7165 4.47385 12.4307 4.60338 12.1506H18.7379C18.6219 11.7057 18.5646 11.2475 18.5675 10.7877C18.6243 9.22643 19.1355 8.06236 20.1008 7.2955C21.066 6.52906 22.1449 6.13143 23.3374 6.10303C24.3026 6.10303 25.1258 6.33025 25.8643 6.78426C26.6023 7.2671 27.1704 7.83471 27.5676 8.54434C27.9652 9.28238 28.1352 9.99201 28.1352 10.6732C28.1352 11.4969 27.9648 12.2349 27.6244 12.9446C27.4086 13.3486 27.1517 13.7291 26.8575 14.0802H32.7769C32.8595 14.3608 32.9348 14.6448 33.0011 14.9319H26.8571C27.4536 15.2443 28.0496 15.6983 28.5604 16.2096C29.2639 16.9077 29.8234 17.7372 30.2073 18.6509C30.6045 19.5882 30.8033 20.5814 30.8033 21.6318C30.8033 22.9947 30.4625 24.244 29.7529 25.4076C29.0716 26.5717 28.1632 27.5086 26.9991 28.1902C25.855 28.8636 24.5508 29.2166 23.2233 29.2123C21.8888 29.2123 20.64 28.8998 19.4475 28.247C18.255 27.5942 17.2898 26.7141 16.5802 25.5785C15.8421 24.4712 15.4729 23.2787 15.4445 21.9727C15.5013 21.8875 15.5013 21.8022 15.5013 21.7459C15.5297 20.525 15.7853 19.4177 16.2961 18.4241C16.6086 17.8565 16.949 17.3168 17.3182 16.8624H3.34033V16.8632ZM23.3365 7.55155C22.428 7.57995 21.6332 7.92035 21.0084 8.5452C20.3839 9.19803 20.0715 10.0781 20.0715 11.1569C20.1283 11.7246 20.2983 12.2358 20.6107 12.6614C20.8947 13.1158 21.2924 13.4567 21.7748 13.7119C22.2576 13.9671 22.7968 14.0807 23.3933 14.0807C23.9893 14.0807 24.529 13.9387 25.0114 13.6262C25.4938 13.3138 25.863 12.8882 26.147 12.3485C26.4311 11.8373 26.5731 11.2697 26.5731 10.6732C26.5447 9.79319 26.2038 9.05516 25.5794 8.45871C24.955 7.86398 24.217 7.55155 23.3365 7.55155ZM16.949 21.8603C16.9774 22.9676 17.2614 23.9892 17.829 24.8981C18.3966 25.8354 19.1635 26.5446 20.1003 27.0842C21.0372 27.6239 22.0592 27.9075 23.1381 27.9075C24.3022 27.9075 25.3526 27.6239 26.3179 27.0274C27.2703 26.4724 28.0626 25.6801 28.6176 24.7277C29.1852 23.734 29.4693 22.6836 29.4693 21.5763C29.4409 20.4691 29.1568 19.447 28.6176 18.5386C28.05 17.6017 27.3115 16.8632 26.3747 16.324C25.4378 15.7844 24.4442 15.5008 23.3369 15.4724C22.2013 15.4724 21.1224 15.7564 20.1571 16.3524C19.1635 16.92 18.3971 17.7153 17.829 18.6806C17.233 19.6742 16.949 20.7247 16.949 21.8603Z" fill="white"/>
<path fill-rule="evenodd" clip-rule="evenodd" d="M41.1655 20.2419H36.6801C36.3108 20.2419 36.0268 20.3555 35.7716 20.6111C35.6553 20.7263 35.5628 20.8634 35.4995 21.0144C35.4363 21.1654 35.4034 21.3274 35.4028 21.4912V23.7621C35.4028 24.1029 35.5448 24.3865 35.7716 24.6421C36.0273 24.8693 36.3108 25.0113 36.6801 25.0113H41.1655C41.5068 25.0113 41.8188 24.8693 42.074 24.6421C42.3007 24.3865 42.4428 24.1029 42.4428 23.7621V21.4912C42.4428 21.1503 42.3007 20.8379 42.074 20.6111C41.8188 20.3555 41.5068 20.2419 41.1655 20.2419ZM40.6267 23.8189H37.2197V21.406H40.6267V23.8189ZM47.8947 23.8189H53.0898V25.0113H47.3551C47.1913 25.0108 47.0293 24.9779 46.8782 24.9145C46.7272 24.8511 46.5902 24.7586 46.475 24.6421C46.2194 24.3865 46.1062 24.1029 46.1062 23.7621V21.4912C46.1062 21.1503 46.2198 20.8379 46.475 20.6111C46.7018 20.3555 47.0138 20.2419 47.3551 20.2419H53.1186V21.406H47.8947V23.8189ZM61.6355 20.2419V22.1724H58.5405V20.2419H56.752V25.0118H58.5405V23.2797H61.6355V25.0118H63.424V20.2419H61.6355ZM72.8209 20.2419H68.335C67.9662 20.2419 67.6817 20.3555 67.4266 20.6111C67.3103 20.7264 67.2179 20.8635 67.1546 21.0145C67.0913 21.1655 67.0584 21.3274 67.0577 21.4912V23.7621C67.0577 24.1029 67.1998 24.3865 67.4266 24.6421C67.6822 24.8693 67.9662 25.0113 68.335 25.0113H72.8209C73.1613 25.0113 73.4741 24.8693 73.7293 24.6421C73.9561 24.3865 74.0981 24.1029 74.0981 23.7621V21.4912C74.0981 21.1503 73.9561 20.8379 73.7293 20.6111C73.4737 20.3555 73.1613 20.2419 72.8209 20.2419ZM72.2812 23.8189H68.8746V21.406H72.2812V23.8189ZM39.8878 17.0621H36.6233C36.2545 17.0053 35.9704 16.8917 35.7432 16.6933C35.516 16.4949 35.4308 16.2389 35.4308 15.9269V15.6428C35.4308 15.3588 35.5444 15.1036 35.7716 14.8764C35.9988 14.678 36.2545 14.564 36.5949 14.564H41.5915V15.5576H37.1341V16.1537H40.3711C40.7399 16.1821 41.0235 16.2957 41.2511 16.4377C41.4779 16.6081 41.5915 16.8349 41.5915 17.1473V17.6302C41.5915 17.9426 41.4779 18.1978 41.2511 18.3966C40.9955 18.6238 40.7399 18.7374 40.3991 18.7374H35.4028V17.7438L39.8883 17.7722V17.0621H39.8878ZM44.4873 16.8349V14.564H42.8692V18.7374H44.4873V16.8349ZM50.222 17.0621H46.9574C46.5886 17.0053 46.3042 16.8917 46.1058 16.6933C45.8782 16.4945 45.7645 16.2389 45.7645 15.9269V15.6428C45.7645 15.3588 45.8782 15.1036 46.1058 14.8764C46.3326 14.675 46.6253 14.5638 46.9286 14.564H51.9253V15.5576H47.4683V16.1537H50.7048C51.0736 16.1821 51.3572 16.2957 51.5849 16.4377C51.8117 16.6081 51.9253 16.8349 51.9253 17.1473V17.6302C51.9253 17.9426 51.8117 18.1978 51.5849 18.3966C51.3572 18.6238 51.0736 18.7374 50.7328 18.7374H45.765V17.7438L50.222 17.7722V17.0621ZM59.2785 14.564H53.2034V15.586H55.3607V18.7374H57.1208V15.586H59.2785V14.564ZM62.1179 16.1821H66.3765V17.0621H62.1179V17.687H66.6601L66.6885 18.7374H61.6355C61.3514 18.7374 61.0958 18.6238 60.869 18.3966C60.7675 18.2968 60.6874 18.1774 60.6336 18.0456C60.5798 17.9138 60.5535 17.7725 60.5562 17.6302V15.6428C60.5562 15.3588 60.6698 15.1036 60.869 14.8764C61.0958 14.678 61.3514 14.564 61.6355 14.564H66.6885L66.6601 15.586H62.1179V16.1821ZM70.8615 36.112H75.0634V31.939H75.6314V36.68H70.8615V36.112ZM75.0634 0.567618H70.8615V0H75.6314V4.76945H75.0634V0.567618ZM69.5275 17.687H74.0697L74.0981 18.7374H69.0451C68.761 18.7374 68.477 18.6238 68.2786 18.3966C68.051 18.1978 67.9658 17.9422 67.9658 17.6302V15.6428C67.9658 15.3588 68.0505 15.1036 68.2786 14.8764C68.4835 14.6762 68.7586 14.5641 69.0451 14.564H74.0981L74.0697 15.586H69.5275V17.687Z" fill="black"/>
</svg>
